<svg xmlns="http://www.w3.org/2000/svg" width="100" height="100" fill="none"><circle cx="50" cy="50" r="50" fill="#FF7500" fill-opacity=".2"/><path fill="#FF7500" d="M40.7 27.4a2.8 2.8 0 0 0-5.4 1.4l.7 2.7a2.8 2.8 0 1 0 5.4-1.4l-.7-2.7ZM28.8 35.3a2.8 2.8 0 0 0-1.4 5.4l2.7.7a2.8 2.8 0 1 0 1.4-5.4l-2.7-.7ZM53.5 33.7a2.8 2.8 0 0 0-4-4l-2 2a2.8 2.8 0 1 0 4 4l2-2ZM33.7 53.5l2-2a2.8 2.8 0 1 0-4-4l-2 2a2.8 2.8 0 1 0 4 4ZM42.6 39a2.8 2.8 0 0 0-3.6 3.6l11.2 28a2.8 2.8 0 0 0 5.1.3l3.9-7.8 8.4 8.5a2.8 2.8 0 1 0 4-4L63 59.2l7.8-3.9a2.8 2.8 0 0 0-.3-5.1L42.6 39Z"/></svg>